<svg width="102" height="39" viewBox="0 0 102 39" fill="none" xmlns="http://www.w3.org/2000/svg">
<path d="M12.08 38.32C8.53333 38.32 5.69333 37.6533 3.56 36.32C1.42667 34.96 0.36 32.8933 0.36 30.12C0.36 28.6533 0.613333 27.5333 1.12 26.76C1.62667 25.9867 2.37333 25.6 3.36 25.6C4.08 25.6 4.66667 25.7867 5.12 26.16C5.57333 26.5333 5.8 27.0133 5.8 27.6C5.8 28.1333 5.76 28.6 5.68 29C5.68 29.1067 5.65333 29.2933 5.6 29.56C5.57333 29.8267 5.56 30.1067 5.56 30.4C5.56 31.6 6.16 32.4933 7.36 33.08C8.58667 33.6667 10.2933 33.96 12.48 33.96C14.7467 33.96 16.52 33.56 17.8 32.76C19.08 31.9333 19.72 30.7867 19.72 29.32C19.72 28.4133 19.4267 27.64 18.84 27C18.2533 26.3333 17.52 25.7867 16.64 25.36C15.76 24.9067 14.52 24.36 12.92 23.72C10.8667 22.92 9.18667 22.16 7.88 21.44C6.6 20.72 5.49333 19.7467 4.56 18.52C3.65333 17.2667 3.2 15.72 3.2 13.88C3.2 11.96 3.70667 10.2533 4.72 8.76C5.76 7.26666 7.24 6.10666 9.16 5.28C11.1067 4.45333 13.3867 4.04 16 4.04C17.9467 4.04 19.7333 4.33333 21.36 4.92C22.9867 5.48 24.28 6.34666 25.24 7.52C26.2267 8.69333 26.72 10.1333 26.72 11.84C26.72 13.52 26.4667 14.7867 25.96 15.64C25.4533 16.4933 24.7067 16.92 23.72 16.92C23.0267 16.92 22.44 16.7067 21.96 16.28C21.5067 15.8533 21.28 15.3467 21.28 14.76C21.28 14.2533 21.32 13.7867 21.4 13.36C21.48 12.56 21.52 12.0533 21.52 11.84C21.52 10.72 20.9733 9.86666 19.88 9.28C18.7867 8.69333 17.4267 8.4 15.8 8.4C13.5067 8.4 11.7467 8.82667 10.52 9.68C9.32 10.5067 8.72 11.68 8.72 13.2C8.72 14.2133 9.02667 15.08 9.64 15.8C10.28 16.52 11.0667 17.12 12 17.6C12.9333 18.08 14.24 18.6533 15.92 19.32C17.9467 20.1467 19.5733 20.8933 20.8 21.56C22.0267 22.2267 23.0667 23.1333 23.92 24.28C24.8 25.4267 25.24 26.84 25.24 28.52C25.24 31.6667 24.04 34.0933 21.64 35.8C19.2667 37.48 16.08 38.32 12.08 38.32ZM33.6991 16.72C32.5791 16.72 31.7391 16.4667 31.1791 15.96C30.6191 15.4267 30.3391 14.6933 30.3391 13.76C30.3391 12.8267 30.6991 12.0533 31.4191 11.44C32.1657 10.8 33.0857 10.48 34.1791 10.48C35.1657 10.48 35.9657 10.72 36.5791 11.2C37.1924 11.68 37.4991 12.36 37.4991 13.24C37.4991 14.3067 37.1524 15.16 36.4591 15.8C35.7657 16.4133 34.8457 16.72 33.6991 16.72ZM33.3791 38.2C31.6457 38.2 30.3791 37.5867 29.5791 36.36C28.8057 35.1333 28.4191 33.5067 28.4191 31.48C28.4191 30.28 28.5657 28.7467 28.8591 26.88C29.1791 24.9867 29.5791 23.2267 30.0591 21.6C30.2991 20.7467 30.6191 20.16 31.0191 19.84C31.4191 19.52 32.0591 19.36 32.9391 19.36C34.2991 19.36 34.9791 19.8133 34.9791 20.72C34.9791 21.3867 34.7257 22.9333 34.2191 25.36C33.5791 28.2933 33.2591 30.28 33.2591 31.32C33.2591 32.12 33.3657 32.7333 33.5791 33.16C33.7924 33.5867 34.1524 33.8 34.6591 33.8C35.1391 33.8 35.7391 33.4667 36.4591 32.8C37.1791 32.1333 38.1391 31.08 39.3391 29.64C39.6591 29.2667 40.0191 29.08 40.4191 29.08C40.7657 29.08 41.0324 29.24 41.2191 29.56C41.4324 29.88 41.5391 30.32 41.5391 30.88C41.5391 31.9467 41.2857 32.7733 40.7791 33.36C38.1391 36.5867 35.6724 38.2 33.3791 38.2ZM57.4816 29.08C57.8282 29.08 58.0949 29.24 58.2816 29.56C58.4949 29.88 58.6016 30.32 58.6016 30.88C58.6016 31.8667 58.3482 32.6933 57.8416 33.36C56.5882 34.9867 55.0282 36.2667 53.1616 37.2C51.3216 38.1333 49.2416 38.6 46.9216 38.6C45.1082 38.6 43.5349 38.3333 42.2016 37.8C40.8682 37.24 39.8416 36.4933 39.1216 35.56C38.4282 34.6 38.0816 33.5333 38.0816 32.36C38.0816 30.6 38.7882 29.04 40.2016 27.68C41.6149 26.32 43.6416 25.0133 46.2816 23.76L39.7216 23.92C39.1349 23.9467 38.6816 23.7467 38.3616 23.32C38.0682 22.8667 37.9216 22.3333 37.9216 21.72C37.9216 21.08 38.0682 20.52 38.3616 20.04C38.6816 19.5333 39.1082 19.28 39.6416 19.28C40.8682 19.28 42.5082 19.3733 44.5616 19.56C44.9882 19.5867 45.7616 19.64 46.8816 19.72C48.0282 19.8 48.9882 19.84 49.7616 19.84C50.0282 19.84 50.5349 19.7333 51.2816 19.52C51.4149 19.4933 51.6682 19.4267 52.0416 19.32C52.4416 19.2133 52.7749 19.16 53.0416 19.16C53.4682 19.16 53.8149 19.3467 54.0816 19.72C54.3749 20.0933 54.5216 20.6667 54.5216 21.44C54.5216 22.2933 54.3216 22.96 53.9216 23.44C53.5216 23.92 52.8949 24.3467 52.0416 24.72C49.6149 25.76 47.6016 26.88 46.0016 28.08C44.4016 29.2533 43.6016 30.4267 43.6016 31.6C43.6016 32.3467 43.9482 32.96 44.6416 33.44C45.3349 33.92 46.3616 34.16 47.7216 34.16C49.2149 34.16 50.7216 33.7867 52.2416 33.04C53.7882 32.2933 55.1749 31.16 56.4016 29.64C56.7216 29.2667 57.0816 29.08 57.4816 29.08ZM75.2941 29.08C75.6407 29.08 75.9074 29.24 76.0941 29.56C76.3074 29.88 76.4141 30.32 76.4141 30.88C76.4141 31.8667 76.1607 32.6933 75.6541 33.36C74.4007 34.9867 72.8407 36.2667 70.9741 37.2C69.1341 38.1333 67.0541 38.6 64.7341 38.6C62.9207 38.6 61.3474 38.3333 60.0141 37.8C58.6807 37.24 57.6541 36.4933 56.9341 35.56C56.2407 34.6 55.8941 33.5333 55.8941 32.36C55.8941 30.6 56.6007 29.04 58.0141 27.68C59.4274 26.32 61.4541 25.0133 64.0941 23.76L57.5341 23.92C56.9474 23.9467 56.4941 23.7467 56.1741 23.32C55.8807 22.8667 55.7341 22.3333 55.7341 21.72C55.7341 21.08 55.8807 20.52 56.1741 20.04C56.4941 19.5333 56.9207 19.28 57.4541 19.28C58.6807 19.28 60.3207 19.3733 62.3741 19.56C62.8007 19.5867 63.5741 19.64 64.6941 19.72C65.8407 19.8 66.8007 19.84 67.5741 19.84C67.8407 19.84 68.3474 19.7333 69.0941 19.52C69.2274 19.4933 69.4807 19.4267 69.8541 19.32C70.2541 19.2133 70.5874 19.16 70.8541 19.16C71.2807 19.16 71.6274 19.3467 71.8941 19.72C72.1874 20.0933 72.3341 20.6667 72.3341 21.44C72.3341 22.2933 72.1341 22.96 71.7341 23.44C71.3341 23.92 70.7074 24.3467 69.8541 24.72C67.4274 25.76 65.4141 26.88 63.8141 28.08C62.2141 29.2533 61.4141 30.4267 61.4141 31.6C61.4141 32.3467 61.7607 32.96 62.4541 33.44C63.1474 33.92 64.1741 34.16 65.5341 34.16C67.0274 34.16 68.5341 33.7867 70.0541 33.04C71.6007 32.2933 72.9874 31.16 74.2141 29.64C74.5341 29.2667 74.8941 29.08 75.2941 29.08ZM88.3066 29.08C88.6532 29.08 88.9199 29.24 89.1066 29.56C89.3199 29.88 89.4266 30.32 89.4266 30.88C89.4266 31.9467 89.1732 32.7733 88.6666 33.36C87.5199 34.7733 86.2666 35.9333 84.9066 36.84C83.5732 37.7467 82.0532 38.2 80.3466 38.2C77.9999 38.2 76.2532 37.1333 75.1066 35C73.9866 32.8667 73.4266 30.1067 73.4266 26.72C73.4266 23.4667 73.8399 19.76 74.6666 15.6C75.5199 11.44 76.7599 7.86667 78.3866 4.88C80.0399 1.89333 81.9999 0.399998 84.2666 0.399998C85.5466 0.399998 86.5466 0.999998 87.2666 2.2C88.0132 3.37333 88.3866 5.06667 88.3866 7.28C88.3866 10.4533 87.5066 14.1333 85.7466 18.32C83.9866 22.5067 81.5999 26.6533 78.5866 30.76C78.7732 31.8533 79.0799 32.64 79.5066 33.12C79.9332 33.5733 80.4932 33.8 81.1866 33.8C82.2799 33.8 83.2399 33.4933 84.0666 32.88C84.8932 32.24 85.9466 31.16 87.2266 29.64C87.5466 29.2667 87.9066 29.08 88.3066 29.08ZM83.3866 4.36C82.7732 4.36 82.0799 5.46667 81.3066 7.68C80.5332 9.89333 79.8532 12.64 79.2666 15.92C78.6799 19.2 78.3599 22.3467 78.3066 25.36C80.1999 22.24 81.7066 19.12 82.8266 16C83.9466 12.8533 84.5066 9.98666 84.5066 7.4C84.5066 5.37333 84.1332 4.36 83.3866 4.36ZM100.513 30.28C100.86 30.28 101.127 30.44 101.313 30.76C101.527 31.08 101.633 31.52 101.633 32.08C101.633 33.04 101.407 33.8667 100.953 34.56C100.207 35.7067 99.2201 36.6 97.9934 37.24C96.7934 37.88 95.3534 38.2 93.6734 38.2C91.1134 38.2 89.1268 37.44 87.7134 35.92C86.3001 34.3733 85.5934 32.2933 85.5934 29.68C85.5934 27.84 85.9801 26.1333 86.7534 24.56C87.5268 22.96 88.5934 21.6933 89.9534 20.76C91.3401 19.8267 92.9001 19.36 94.6334 19.36C96.1801 19.36 97.4201 19.8267 98.3534 20.76C99.2868 21.6667 99.7534 22.9067 99.7534 24.48C99.7534 26.32 99.0868 27.9067 97.7534 29.24C96.4468 30.5467 94.2068 31.5867 91.0334 32.36C91.6734 33.5867 92.7534 34.2 94.2734 34.2C95.3668 34.2 96.2601 33.9467 96.9534 33.44C97.6734 32.9333 98.5001 32.08 99.4334 30.88C99.7534 30.48 100.113 30.28 100.513 30.28ZM93.9534 23.28C92.9668 23.28 92.1268 23.8533 91.4334 25C90.7668 26.1467 90.4334 27.5333 90.4334 29.16V29.24C92.0068 28.8667 93.2468 28.3067 94.1534 27.56C95.0601 26.8133 95.5134 25.9467 95.5134 24.96C95.5134 24.4533 95.3668 24.0533 95.0734 23.76C94.8068 23.44 94.4334 23.28 93.9534 23.28Z" fill="#047857"/>
</svg>
